<?xml version="1.0" encoding="utf-8"?>
<!-- Generator: Adobe Illustrator 19.0.0, SVG Export Plug-In . SVG Version: 6.00 Build 0)  -->
<svg version="1.1" id="图层_1" xmlns="http://www.w3.org/2000/svg" xmlns:xlink="http://www.w3.org/1999/xlink" x="0px" y="0px"
	 viewBox="-255 158 128 166" style="enable-background:new -255 158 128 166;" xml:space="preserve">
<style type="text/css">
	.st0{fill:#8A011E;}
	.st1{fill:#EBF7C9;}
	.st2{clip-path:url(#SVGID_2_);fill:#FFFFFF;}
</style>
<g id="XMLID_334_">
	<g id="XMLID_152_">
		<g id="XMLID_1438_">
			<path id="XMLID_1442_" class="st0" d="M-194.5,321.3c-21.5,0-37.2-9.3-46.9-27.9c-7.2-13.8-10.7-31.6-10.7-53.4
				c0-18.6,4.7-35,14.2-49c11.3-16.9,26.8-25.3,46.5-25.3c18.6,0,33.1,7.5,43.4,22.6c8.7,12.7,13,28,13,46c0,29-4.9,50.8-14.8,65.3
				C-159.7,314.1-174.6,321.3-194.5,321.3z M-191.5,191.1c-10.5,0-19,5.2-25.4,15.7c-5.6,9.1-8.4,19.7-8.4,31.7
				c0,15.9,1.5,28.1,4.5,36.7c4.8,13.9,13.6,20.8,26.4,20.8c10.7,0,18.7-4.9,24-14.6c5.3-9.7,8-24.3,8-43.8c0-15.6-2.4-27.2-7.3-35
				C-174.5,194.9-181.7,191.1-191.5,191.1z"/>
		</g>
		<g id="XMLID_1431_">
			<path id="XMLID_1435_" class="st1" d="M-189.5,316.3c-21.5,0-37.2-9.3-46.9-27.9c-7.2-13.8-10.7-31.6-10.7-53.4
				c0-18.6,4.7-35,14.2-49c11.3-16.9,26.8-25.3,46.5-25.3c18.6,0,33.1,7.5,43.4,22.6c8.7,12.7,13,28,13,46c0,29-4.9,50.8-14.8,65.3
				C-154.7,309.1-169.6,316.3-189.5,316.3z M-186.5,186.1c-10.5,0-19,5.2-25.4,15.7c-5.6,9.1-8.4,19.7-8.4,31.7
				c0,15.9,1.5,28.1,4.5,36.7c4.8,13.9,13.6,20.8,26.4,20.8c10.7,0,18.7-4.9,24-14.6c5.3-9.7,8-24.3,8-43.8c0-15.6-2.4-27.2-7.3-35
				C-169.5,189.9-176.7,186.1-186.5,186.1z"/>
		</g>
	</g>
	<g id="XMLID_153_">
		<g>
			<defs>
				<path id="SVGID_1_" d="M-189.5,316.3c-21.5,0-37.2-9.3-46.9-27.9c-7.2-13.8-10.7-31.6-10.7-53.4c0-18.6,4.7-35,14.2-49
					c11.3-16.9,26.8-25.3,46.5-25.3c18.6,0,33.1,7.5,43.4,22.6c8.7,12.7,13,28,13,46c0,29-4.9,50.8-14.8,65.3
					C-154.7,309.1-169.6,316.3-189.5,316.3z"/>
			</defs>
			<clipPath id="SVGID_2_">
				<use xlink:href="#SVGID_1_"  style="overflow:visible;"/>
			</clipPath>
			<path id="XMLID_154_" class="st2" d="M-185.5,312.3c-21.5,0-37.2-9.3-46.9-27.9c-7.2-13.8-10.7-31.6-10.7-53.4
				c0-18.6,4.7-35,14.2-49c11.3-16.9,26.8-25.3,46.5-25.3c18.6,0,33.1,7.5,43.4,22.6c8.7,12.7,13,28,13,46c0,29-4.9,50.8-14.8,65.3
				C-150.7,305.1-165.6,312.3-185.5,312.3z M-182.5,182.1c-10.5,0-19,5.2-25.4,15.7c-5.6,9.1-8.4,19.7-8.4,31.7
				c0,15.9,1.5,28.1,4.5,36.7c4.8,13.9,13.6,20.8,26.4,20.8c10.7,0,18.7-4.9,24-14.6c5.3-9.7,8-24.3,8-43.8c0-15.6-2.4-27.2-7.3-35
				C-165.5,185.9-172.7,182.1-182.5,182.1z"/>
		</g>
	</g>
</g>
</svg>
