<?xml version="1.0" encoding="utf-8"?>
<!-- Generator: Adobe Illustrator 19.0.0, SVG Export Plug-In . SVG Version: 6.00 Build 0)  -->
<svg version="1.1" id="图层_1" xmlns="http://www.w3.org/2000/svg" xmlns:xlink="http://www.w3.org/1999/xlink" x="0px" y="0px"
	 viewBox="-255 158 128 166" style="enable-background:new -255 158 128 166;" xml:space="preserve">
<style type="text/css">
	.st0{fill:#8A011E;}
	.st1{fill:#EBF7C9;}
	.st2{clip-path:url(#SVGID_2_);fill:#FFFFFF;}
</style>
<g id="XMLID_973_">
	<g id="XMLID_106_">
		<g id="XMLID_165_">
			<path id="XMLID_372_" class="st0" d="M-171.4,319.7l-38.8-0.1c-12.3,0-18.5-3.9-18.5-11.6c0-8.7,6.9-13.1,20.6-13.1
				c1.3,0,2.7,0,4.3,0.1v-86.7c-5.7,3.9-9.3,5.9-11,5.9c-3.6,0-6.8-1.3-9.5-3.9c-2.7-2.6-4.1-5.6-4.1-9.1c0-3.6,2.2-7.3,6.5-11l11-8
				l11.9-9.6c4.9-3.5,9.6-5.3,14.2-5.3c5.9,0,8.8,3.5,8.8,10.5c0,7.7-0.3,18.7-1,32.7c-0.7,14.1-1,34.1-1,60.3v23.7h6.4
				c3.8,0,6.9,1.2,9.5,3.6c2.6,2.4,3.9,5.4,3.9,9s-1.3,6.6-3.9,9C-164.4,318.5-167.7,319.7-171.4,319.7z"/>
		</g>
		<g id="XMLID_160_">
			<path id="XMLID_163_" class="st1" d="M-166.4,314.7l-38.8-0.1c-12.3,0-18.5-3.9-18.5-11.6c0-8.7,6.9-13.1,20.6-13.1
				c1.3,0,2.7,0,4.3,0.1v-86.7c-5.7,3.9-9.3,5.9-11,5.9c-3.6,0-6.8-1.3-9.5-3.9c-2.7-2.6-4.1-5.6-4.1-9.1c0-3.6,2.2-7.3,6.5-11l11-8
				l11.9-9.6c4.9-3.5,9.6-5.3,14.2-5.3c5.9,0,8.8,3.5,8.8,10.5c0,7.7-0.3,18.7-1,32.7c-0.7,14.1-1,34.1-1,60.3v23.7h6.4
				c3.8,0,6.9,1.2,9.5,3.6c2.6,2.4,3.9,5.4,3.9,9s-1.3,6.6-3.9,9C-159.4,313.5-162.7,314.7-166.4,314.7z"/>
		</g>
	</g>
	<g id="XMLID_50_">
		<g>
			<defs>
				<path id="SVGID_1_" d="M-166.4,314.7l-38.8-0.1c-12.3,0-18.5-3.9-18.5-11.6c0-8.7,6.9-13.1,20.6-13.1c1.3,0,2.7,0,4.3,0.1v-86.7
					c-5.7,3.9-9.3,5.9-11,5.9c-3.6,0-6.8-1.3-9.5-3.9c-2.7-2.6-4.1-5.6-4.1-9.1c0-3.6,2.2-7.3,6.5-11l11-8l11.9-9.6
					c4.9-3.5,9.6-5.3,14.2-5.3c5.9,0,8.8,3.5,8.8,10.5c0,7.7-0.3,18.7-1,32.7c-0.7,14.1-1,34.1-1,60.3v23.7h6.4
					c3.8,0,6.9,1.2,9.5,3.6c2.6,2.4,3.9,5.4,3.9,9s-1.3,6.6-3.9,9C-159.4,313.5-162.7,314.7-166.4,314.7z"/>
			</defs>
			<clipPath id="SVGID_2_">
				<use xlink:href="#SVGID_1_"  style="overflow:visible;"/>
			</clipPath>
			<path id="XMLID_102_" class="st2" d="M-162.4,310.7l-38.8-0.1c-12.3,0-18.5-3.9-18.5-11.6c0-8.7,6.9-9,20.6-9
				c1.3,0,2.7,0,4.3,0.1v-90.8c-5.7,3.9-9.3,5.9-11,5.9c-3.6,0-6.8-1.3-9.5-3.9c-2.7-2.6-4.1-5.6-4.1-9.1c0-3.6,2.2-7.3,6.5-11l11-8
				l11.9-9.6c4.9-3.5,9.6-5.3,14.2-5.3c5.9,0,8.8,3.5,8.8,10.5c0,7.7-0.3,18.7-1,32.7c-0.7,14.1-1,34.1-1,60.3v23.7h6.4
				c3.8,0,6.9,1.2,9.5,3.6c2.6,2.4,3.9,5.4,3.9,9s-1.3,6.6-3.9,9C-155.4,309.5-158.7,310.7-162.4,310.7z"/>
		</g>
	</g>
</g>
</svg>
