<?xml version="1.0" encoding="utf-8"?>
<!-- Generator: Adobe Illustrator 19.0.0, SVG Export Plug-In . SVG Version: 6.00 Build 0)  -->
<svg version="1.1" id="图层_1" xmlns="http://www.w3.org/2000/svg" xmlns:xlink="http://www.w3.org/1999/xlink" x="0px" y="0px"
	 viewBox="-255 158 128 166" style="enable-background:new -255 158 128 166;" xml:space="preserve">
<style type="text/css">
	.st0{fill:#8A011E;}
	.st1{fill:#EBF7C9;}
	.st2{clip-path:url(#SVGID_2_);fill:#FFFFFF;}
</style>
<g id="XMLID_959_">
	<g id="XMLID_56_">
		<g id="XMLID_567_">
			<path id="XMLID_569_" class="st0" d="M-157,318.6c-1.6,0-4.2-0.3-7.6-0.8c-3.4-0.6-5.9-0.8-7.4-0.8l-28.7-0.1
				c-2.5,0-6.2,0.3-11.2,0.9c-5,0.6-8.8,0.9-11.3,0.9c-0.7,0-1.8-0.1-3.1-0.4c-1.4-0.3-2.4-0.4-3.1-0.4c-5.9,0-9.8-2.4-11.9-7.1
				c-1.3-3-2-7.6-2-13.9c0-12.2,2.7-22.4,8.1-30.6c4.2-6.3,10.9-12.6,20.2-18.9c8.8-5.8,17.5-11.6,26.3-17.3
				c10.3-7.5,15.4-16,15.4-25.5c0-2.5-2.1-4.9-6.2-7.4c-4.1-2.5-8.1-3.7-12-3.7c-6.9,0-14.2,3.1-21.9,9.2c-7.7,6.1-13,9.2-15.9,9.2
				c-3.5,0-6.5-0.8-9.1-2.5c-3.3-2.1-4.9-5-4.9-8.7c0-4,1.6-7.4,4.9-10.3c7.9-7,14.7-12,20.6-15.2c8.5-4.6,17.2-6.9,26.3-6.9
				c11.3,0,21.4,3,30.5,8.9c10.4,6.8,15.5,15.6,15.5,26.6c0,11.1-2.5,20.5-7.6,28.2c-4,6.2-10.3,12.2-18.8,18.1
				c-8.1,5.1-16.3,10.3-24.4,15.3c-12.4,8.1-19,17.3-19.9,27.6c3.6-0.5,8.9-1,15.8-1.6c13.9-0.7,23.8-1.1,29.8-1.1
				c5.6,0,11.1,1.2,16.6,3.6c6.8,3,10.2,6.8,10.2,11.5c0,3.4-1.2,6.3-3.6,8.9C-150,317.3-153.2,318.6-157,318.6z"/>
		</g>
		<g id="XMLID_564_">
			<path id="XMLID_566_" class="st1" d="M-152,313.6c-1.6,0-4.2-0.3-7.6-0.8c-3.4-0.6-5.9-0.8-7.4-0.8l-28.7-0.1
				c-2.5,0-6.2,0.3-11.2,0.9c-5,0.6-8.8,0.9-11.3,0.9c-0.7,0-1.8-0.1-3.1-0.4c-1.4-0.3-2.4-0.4-3.1-0.4c-5.9,0-9.8-2.4-11.9-7.1
				c-1.3-3-2-7.6-2-13.9c0-12.2,2.7-22.4,8.1-30.6c4.2-6.3,10.9-12.6,20.2-18.9c8.8-5.8,17.5-11.6,26.3-17.3
				c10.3-7.5,15.4-16,15.4-25.5c0-2.5-2.1-4.9-6.2-7.4c-4.1-2.5-8.1-3.7-12-3.7c-6.9,0-14.2,3.1-21.9,9.2c-7.7,6.1-13,9.2-15.9,9.2
				c-3.5,0-6.5-0.8-9.1-2.5c-3.3-2.1-4.9-5-4.9-8.7c0-4,1.6-7.4,4.9-10.3c7.9-7,14.7-12,20.6-15.2c8.5-4.6,17.2-6.9,26.3-6.9
				c11.3,0,21.4,3,30.5,8.9c10.4,6.8,15.5,15.6,15.5,26.6c0,11.1-2.5,20.5-7.6,28.2c-4,6.2-10.3,12.2-18.8,18.1
				c-8.1,5.1-16.3,10.3-24.4,15.3c-12.4,8.1-19,17.3-19.9,27.6c3.6-0.5,8.9-1,15.8-1.6c13.9-0.7,23.8-1.1,29.8-1.1
				c5.6,0,11.1,1.2,16.6,3.6c6.8,3,10.2,6.8,10.2,11.5c0,3.4-1.2,6.3-3.6,8.9C-145,312.3-148.2,313.6-152,313.6z"/>
		</g>
	</g>
	<g id="XMLID_54_">
		<g>
			<defs>
				<path id="SVGID_1_" d="M-152,313.6c-1.6,0-4.2-0.3-7.6-0.8c-3.4-0.6-5.9-0.8-7.4-0.8l-28.7-0.1c-2.5,0-6.2,0.3-11.2,0.9
					c-5,0.6-8.8,0.9-11.3,0.9c-0.7,0-1.8-0.1-3.1-0.4c-1.4-0.3-2.4-0.4-3.1-0.4c-5.9,0-9.8-2.4-11.9-7.1c-1.3-3-2-7.6-2-13.9
					c0-12.2,2.7-22.4,8.1-30.6c4.2-6.3,10.9-12.6,20.2-18.9c8.8-5.8,17.5-11.6,26.3-17.3c10.3-7.5,15.4-16,15.4-25.5
					c0-2.5-2.1-4.9-6.2-7.4c-4.1-2.5-8.1-3.7-12-3.7c-6.9,0-14.2,3.1-21.9,9.2c-7.7,6.1-13,9.2-15.9,9.2c-3.5,0-6.5-0.8-9.1-2.5
					c-3.3-2.1-4.9-5-4.9-8.7c0-4,1.6-7.4,4.9-10.3c7.9-7,14.7-12,20.6-15.2c8.5-4.6,17.2-6.9,26.3-6.9c11.3,0,21.4,3,30.5,8.9
					c10.4,6.8,15.5,15.6,15.5,26.6c0,11.1-2.5,20.5-7.6,28.2c-4,6.2-10.3,12.2-18.8,18.1c-8.1,5.1-16.3,10.3-24.4,15.3
					c-12.4,8.1-19,17.3-19.9,27.6c3.6-0.5,8.9-1,15.8-1.6c13.9-0.7,23.8-1.1,29.8-1.1c5.6,0,11.1,1.2,16.6,3.6
					c6.8,3,10.2,6.8,10.2,11.5c0,3.4-1.2,6.3-3.6,8.9C-145,312.3-148.2,313.6-152,313.6z"/>
			</defs>
			<clipPath id="SVGID_2_">
				<use xlink:href="#SVGID_1_"  style="overflow:visible;"/>
			</clipPath>
			<path id="XMLID_55_" class="st2" d="M-148,309.6c-1.6,0-4.2-0.3-7.6-0.8c-3.4-0.6-5.9-0.8-7.4-0.8l-28.7-0.1
				c-2.5,0-6.2,0.3-11.2,0.9c-5,0.6-8.8,0.9-11.3,0.9c-0.7,0-1.8-0.1-3.1-0.4c-1.4-0.3-2.4-0.4-3.1-0.4c-5.9,0-9.8-2.4-11.9-7.1
				c-1.3-3-2-7.6-2-13.9c0-12.2,2.7-22.4,8.1-30.6c4.2-6.3,10.9-12.6,20.2-18.9c8.8-5.8,17.5-11.6,26.3-17.3
				c10.3-7.5,15.4-16,15.4-25.5c0-2.5-2.1-4.9-6.2-7.4c-4.1-2.5-8.1-3.7-12-3.7c-6.9,0-14.2,3.1-21.9,9.2c-7.7,6.1-13,9.2-15.9,9.2
				c-3.5,0-6.5-0.8-9.1-2.5c-3.3-2.1-4.9-5-4.9-8.7c0-4,1.6-7.4,4.9-10.3c7.9-7,14.7-12,20.6-15.2c8.5-4.6,17.2-6.9,26.3-6.9
				c11.3,0,21.4,3,30.5,8.9c10.4,6.8,15.5,15.6,15.5,26.6c0,11.1-2.5,20.5-7.6,28.2c-4,6.2-10.3,12.2-18.8,18.1
				c-8.1,5.1-16.3,10.3-24.4,15.3c-12.4,8.1-19,17.3-19.9,27.6c3.6-0.5,8.9-1,15.8-1.6c13.9-0.7,23.8-1.1,29.8-1.1
				c5.6,0,11.1,1.2,16.6,3.6c6.8,3,10.2,6.8,10.2,11.5c0,3.4-1.2,6.3-3.6,8.9C-141,308.3-144.2,309.6-148,309.6z"/>
		</g>
	</g>
</g>
</svg>
