<?xml version="1.0" encoding="utf-8"?>
<!-- Generator: Adobe Illustrator 19.0.0, SVG Export Plug-In . SVG Version: 6.00 Build 0)  -->
<svg version="1.1" id="图层_1" xmlns="http://www.w3.org/2000/svg" xmlns:xlink="http://www.w3.org/1999/xlink" x="0px" y="0px"
	 viewBox="-255 158 128 166" style="enable-background:new -255 158 128 166;" xml:space="preserve">
<style type="text/css">
	.st0{fill:#8A011E;}
	.st1{fill:#EBF7C9;}
	.st2{clip-path:url(#SVGID_2_);fill:#FFFFFF;}
</style>
<g id="XMLID_358_">
	<g id="XMLID_327_">
		<g id="XMLID_388_">
			<path id="XMLID_390_" class="st0" d="M-164,236.7c13.4,7.5,20.1,19.5,20.1,35.9c0,13.3-4.9,24.5-14.7,33.8
				c-9.8,9.2-21.8,13.9-35.8,13.9c-10.5,0-19.9-2.1-28.3-6.3c-9.7-4.9-16.2-12-19.6-21.1c-0.5-1.4-0.8-2.8-0.8-4.4
				c0-3.6,1.5-6.7,4.4-9.1c2.7-2.2,5.9-3.3,9.4-3.3c4.1,0,7.4,1.6,9.9,4.9c4.2,5.6,6.6,8.7,7.2,9.2c4,3.3,10,4.9,17.9,4.9
				c6.2,0,11.6-1.9,16.3-5.6c4.7-3.7,7-8.2,7-13.4c0-16.2-10.9-25.4-32.7-27.5c-9.6-0.9-14.4-4.9-14.4-12c0-5.4,3.7-9.3,11.1-11.8
				c7-1.6,14-3.2,21-4.8c4.4-1.4,7.7-3.2,10-5.4c2.2-2.2,3.4-4.8,3.4-7.9c0.3-9.7-7.3-14.6-22.8-14.6c-5.1,0-10.6,1.9-16.7,5.8
				c-6.1,3.9-10.2,5.8-12.4,5.8c-3.7,0-6.9-1.3-9.5-4c-2.6-2.7-3.9-5.7-3.9-9.1c0-5.5,5.5-11,16.4-16.5c9.8-4.9,17.7-7.3,23.8-7.3
				c14.8,0,26.7,3.2,35.6,9.6c9.8,7,14.7,17.1,14.7,30.1c0,7.2-1.4,13.3-4.2,18.3C-154.3,229.7-158.4,233.7-164,236.7z"/>
		</g>
		<g id="XMLID_385_">
			<path id="XMLID_387_" class="st1" d="M-159,231.7c13.4,7.5,20.1,19.5,20.1,35.9c0,13.3-4.9,24.5-14.7,33.8
				c-9.8,9.2-21.8,13.9-35.8,13.9c-10.5,0-19.9-2.1-28.3-6.3c-9.7-4.9-16.2-12-19.6-21.1c-0.5-1.4-0.8-2.8-0.8-4.4
				c0-3.6,1.5-6.7,4.4-9.1c2.7-2.2,5.9-3.3,9.4-3.3c4.1,0,7.4,1.6,9.9,4.9c4.2,5.6,6.6,8.7,7.2,9.2c4,3.3,10,4.9,17.9,4.9
				c6.2,0,11.6-1.9,16.3-5.6c4.7-3.7,7-8.2,7-13.4c0-16.2-10.9-25.4-32.7-27.5c-9.6-0.9-14.4-4.9-14.4-12c0-5.4,3.7-9.3,11.1-11.8
				c7-1.6,14-3.2,21-4.8c4.4-1.4,7.7-3.2,10-5.4c2.2-2.2,3.4-4.8,3.4-7.9c0.3-9.7-7.3-14.6-22.8-14.6c-5.1,0-10.6,1.9-16.7,5.8
				c-6.1,3.9-10.2,5.8-12.4,5.8c-3.7,0-6.9-1.3-9.5-4c-2.6-2.7-3.9-5.7-3.9-9.1c0-5.5,5.5-11,16.4-16.5c9.8-4.9,17.7-7.3,23.8-7.3
				c14.8,0,26.7,3.2,35.6,9.6c9.8,7,14.7,17.1,14.7,30.1c0,7.2-1.4,13.3-4.2,18.3C-149.3,224.7-153.4,228.7-159,231.7z"/>
		</g>
	</g>
	<g id="XMLID_289_">
		<g>
			<defs>
				<path id="SVGID_1_" d="M-159,231.7c13.4,7.5,20.1,19.5,20.1,35.9c0,13.3-4.9,24.5-14.7,33.8c-9.8,9.2-21.8,13.9-35.8,13.9
					c-10.5,0-19.9-2.1-28.3-6.3c-9.7-4.9-16.2-12-19.6-21.1c-0.5-1.4-0.8-2.8-0.8-4.4c0-3.6,1.5-6.7,4.4-9.1
					c2.7-2.2,5.9-3.3,9.4-3.3c4.1,0,7.4,1.6,9.9,4.9c4.2,5.6,6.6,8.7,7.2,9.2c4,3.3,10,4.9,17.9,4.9c6.2,0,11.6-1.9,16.3-5.6
					c4.7-3.7,7-8.2,7-13.4c0-16.2-10.9-25.4-32.7-27.5c-9.6-0.9-14.4-4.9-14.4-12c0-5.4,3.7-9.3,11.1-11.8c7-1.6,14-3.2,21-4.8
					c4.4-1.4,7.7-3.2,10-5.4c2.2-2.2,3.4-4.8,3.4-7.9c0.3-9.7-7.3-14.6-22.8-14.6c-5.1,0-10.6,1.9-16.7,5.8
					c-6.1,3.9-10.2,5.8-12.4,5.8c-3.7,0-6.9-1.3-9.5-4c-2.6-2.7-3.9-5.7-3.9-9.1c0-5.5,5.5-11,16.4-16.5c9.8-4.9,17.7-7.3,23.8-7.3
					c14.8,0,26.7,3.2,35.6,9.6c9.8,7,14.7,17.1,14.7,30.1c0,7.2-1.4,13.3-4.2,18.3C-149.3,224.7-153.4,228.7-159,231.7z"/>
			</defs>
			<clipPath id="SVGID_2_">
				<use xlink:href="#SVGID_1_"  style="overflow:visible;"/>
			</clipPath>
			<path id="XMLID_290_" class="st2" d="M-155,227.7c13.4,7.5,20.1,19.5,20.1,35.9c0,13.3-4.9,24.5-14.7,33.8
				c-9.8,9.2-21.8,13.9-35.8,13.9c-10.5,0-19.9-2.1-28.3-6.3c-9.7-4.9-16.2-12-19.6-21.1c-0.5-1.4-0.8-2.8-0.8-4.4
				c0-3.6,1.5-6.7,4.4-9.1c2.7-2.2,5.9-3.3,9.4-3.3c4.1,0,7.4,1.6,9.9,4.9c4.2,5.6,6.6,8.7,7.2,9.2c4,3.3,10,4.9,17.9,4.9
				c6.2,0,11.6-1.9,16.3-5.6c4.7-3.7,7-8.2,7-13.4c0-16.2-10.9-25.4-32.7-27.5c-9.6-0.9-14.4-4.9-14.4-12c0-5.4,3.7-9.3,11.1-11.8
				c7-1.6,14-3.2,21-4.8c4.4-1.4,7.7-3.2,10-5.4c2.2-2.2,3.4-4.8,3.4-7.9c0.3-9.7-7.3-14.6-22.8-14.6c-5.1,0-10.6,1.9-16.7,5.8
				c-6.1,3.9-10.2,5.8-12.4,5.8c-3.7,0-6.9-1.3-9.5-4c-2.6-2.7-3.9-5.7-3.9-9.1c0-5.5,5.5-11,16.4-16.5c9.8-4.9,17.7-7.3,23.8-7.3
				c14.8,0,26.7,3.2,35.6,9.6c9.8,7,14.7,17.1,14.7,30.1c0,7.2-1.4,13.3-4.2,18.3C-145.3,220.7-149.4,224.7-155,227.7z"/>
		</g>
	</g>
</g>
</svg>
