<?xml version="1.0" encoding="utf-8"?>
<!-- Generator: Adobe Illustrator 19.0.0, SVG Export Plug-In . SVG Version: 6.00 Build 0)  -->
<svg version="1.1" id="图层_1" xmlns="http://www.w3.org/2000/svg" xmlns:xlink="http://www.w3.org/1999/xlink" x="0px" y="0px"
	 viewBox="-255 158 128 166" style="enable-background:new -255 158 128 166;" xml:space="preserve">
<style type="text/css">
	.st0{fill:#8A011E;}
	.st1{fill:#EBF7C9;}
	.st2{clip-path:url(#SVGID_2_);fill:#FFFFFF;}
</style>
<g id="XMLID_936_">
	<g id="XMLID_101_">
		<g id="XMLID_535_">
			<path id="XMLID_539_" class="st0" d="M-182.9,278.2h-39c-20.9,0-31.3-4.3-31.3-12.8c0-3.6,1.8-7.6,5.5-12c3-3.4,6-6.8,9.1-10.3
				c10.5-15,26.5-37.2,47.9-66.8c5.1-6.8,11.7-10.2,19.8-10.2c3.8,0,7.2,1,10,2.9c3.3,2.3,5,5.6,5,9.9l0.1,73.4
				c8.5,0.3,14.2,1.1,17.1,2.6c3.2,1.8,4.8,5.2,4.8,10.4c0.1,5.4-2.4,9.1-7.4,11.1c-3.5,1.4-8.3,1.9-14.5,1.7
				c0.2,9.4,0.2,19.5-0.1,30.5c-0.1,3.6-1.2,6.5-3.5,8.9c-2.3,2.3-5.4,3.5-9.3,3.5c-9.9,0-14.6-6.5-14.2-19.5L-182.9,278.2
				L-182.9,278.2z M-182.9,208.6c-6.3,10-16,24.6-29.2,43.8h29.2V208.6z"/>
		</g>
		<g id="XMLID_528_">
			<path id="XMLID_532_" class="st1" d="M-177.9,273.2h-39c-20.9,0-31.3-4.3-31.3-12.8c0-3.6,1.8-7.6,5.5-12c3-3.4,6-6.8,9.1-10.3
				c10.5-15,26.5-37.2,47.9-66.8c5.1-6.8,11.7-10.2,19.8-10.2c3.8,0,7.2,1,10,2.9c3.3,2.3,5,5.6,5,9.9l0.1,73.4
				c8.5,0.3,14.2,1.1,17.1,2.6c3.2,1.8,4.8,5.2,4.8,10.4c0.1,5.4-2.4,9.1-7.4,11.1c-3.5,1.4-8.3,1.9-14.5,1.7
				c0.2,9.4,0.2,19.5-0.1,30.5c-0.1,3.6-1.2,6.5-3.5,8.9c-2.3,2.3-5.4,3.5-9.3,3.5c-9.9,0-14.6-6.5-14.2-19.5L-177.9,273.2
				L-177.9,273.2z M-177.9,203.6c-6.3,10-16,24.6-29.2,43.8h29.2V203.6z"/>
		</g>
	</g>
	<g id="XMLID_104_">
		<g>
			<defs>
				<path id="SVGID_1_" d="M-177.9,273.2h-39c-20.9,0-31.3-4.3-31.3-12.8c0-3.6,1.8-7.6,5.5-12c3-3.4,6-6.8,9.1-10.3
					c10.5-15,26.5-37.2,47.9-66.8c5.1-6.8,11.7-10.2,19.8-10.2c3.8,0,7.2,1,10,2.9c3.3,2.3,5,5.6,5,9.9l0.1,73.4
					c8.5,0.3,14.2,1.1,17.1,2.6c3.2,1.8,4.8,5.2,4.8,10.4c0.1,5.4-9.3,8.4-21.9,8.4c0.2,9.4,0.2,23.9-0.1,34.9
					c-0.1,3.6-1.2,6.5-3.5,8.9c-2.3,2.3-5.4,3.5-9.3,3.5c-9.9,0-14.6-6.5-14.2-19.5L-177.9,273.2L-177.9,273.2z"/>
			</defs>
			<clipPath id="SVGID_2_">
				<use xlink:href="#SVGID_1_"  style="overflow:visible;"/>
			</clipPath>
			<path id="XMLID_105_" class="st2" d="M-173.9,269.2h-39c-20.9,0-31.3-4.3-31.3-12.8c0-3.6,1.8-7.6,5.5-12c3-3.4,6-6.8,9.1-10.3
				c10.5-15,26.5-37.2,47.9-66.8c5.1-6.8,11.7-10.2,19.8-10.2c3.8,0,7.2,1,10,2.9c3.3,2.3,5,5.6,5,9.9l0.1,73.4
				c8.5,0.3,14.2,1.1,17.1,2.6c3.2,1.8,4.8,5.2,4.8,10.4c0.1,5.4-2.4,9.1-7.4,11.1c-3.5,1.4-8.3,1.9-14.5,1.7
				c0.2,9.4,0.2,19.5-0.1,30.5c-0.1,3.6-1.2,6.5-3.5,8.9c-2.3,2.3-5.4,3.5-9.3,3.5c-9.9,0-14.6-6.5-14.2-19.5L-173.9,269.2
				L-173.9,269.2z M-173.9,199.6c-6.3,10-16,24.6-29.2,43.8h29.2V199.6z"/>
		</g>
	</g>
</g>
</svg>
