<?xml version="1.0" encoding="utf-8"?>
<!-- Generator: Adobe Illustrator 19.0.0, SVG Export Plug-In . SVG Version: 6.00 Build 0)  -->
<svg version="1.1" id="图层_1" xmlns="http://www.w3.org/2000/svg" xmlns:xlink="http://www.w3.org/1999/xlink" x="0px" y="0px"
	 viewBox="-255 158 128 166" style="enable-background:new -255 158 128 166;" xml:space="preserve">
<style type="text/css">
	.st0{fill:#8A011E;}
	.st1{fill:#EBF7C9;}
	.st2{clip-path:url(#SVGID_2_);fill:#FFFFFF;}
</style>
<g id="XMLID_652_">
	<g id="XMLID_14_">
		<g id="XMLID_555_">
			<path id="XMLID_557_" class="st0" d="M-201.3,321.6c-19.9,0-34.6-7.1-44-21.3c-1.6-2.5-2.4-4.8-2.4-7.1c0-3.5,1.4-6.5,4.2-9
				s6-3.7,9.6-3.7s6.8,1.4,9.4,4.1c4.6,4.8,7,7.3,7.4,7.6c3.8,2.7,9.1,4.1,15.9,4.1c10,0,18.4-3.7,25.1-11
				c6.4-7.1,9.7-15.7,9.7-25.8c0-9.7-1.6-17-4.8-21.8s-8.1-7.2-14.6-7.2c-11.5,0-20.7,3.7-27.6,11.1c-2.7,3.1-5.5,6.2-8.3,9.3
				c-3.5,3.3-7.3,5-11.2,5c-3.7,0-6.9-1.3-9.4-3.8c-2.6-2.5-3.9-5.5-3.9-9c0-1.5,0.6-7.2,1.7-17c2.1-19.1,3.2-31.8,3.2-38.1
				c0-1.6-0.6-3.7-1.7-6.4c-1.1-2.7-1.7-4.9-1.7-6.4c0-3.3,1.7-5.7,5-7.4c2.6-1.3,5.7-2,9.2-2c1.3,0,3.3,0.1,5.9,0.3
				c2.6,0.2,4.6,0.3,5.9,0.3l47,0.1c1.2,0,3.7-0.2,7.5-0.6c3.8-0.4,6.4-0.6,7.6-0.6c3.5,0,6.4,1.1,8.7,3.4c2.3,2.2,3.4,5.1,3.4,8.6
				c0,9.7-9.9,14.6-29.6,14.6c-1.6,0-3.5,0-5.9-0.1c-2.4-0.1-4-0.1-4.7-0.1h-29.1c-0.2,4-1,10.5-2.4,19.7c8.5-4.2,18.7-6.2,30.6-6.2
				c15.8,0,27.8,5.9,36,17.7c6.8,9.7,10.3,21.9,10.3,36.6c0,17.7-5.5,32.4-16.4,43.9C-167.4,315.6-182.5,321.6-201.3,321.6z"/>
		</g>
		<g id="XMLID_552_">
			<path id="XMLID_554_" class="st1" d="M-196.3,316.6c-19.9,0-34.6-7.1-44-21.3c-1.6-2.5-2.4-4.8-2.4-7.1c0-3.5,1.4-6.5,4.2-9
				s6-3.7,9.6-3.7s6.8,1.4,9.4,4.1c4.6,4.8,7,7.3,7.4,7.6c3.8,2.7,9.1,4.1,15.9,4.1c10,0,18.4-3.7,25.1-11
				c6.4-7.1,9.7-15.7,9.7-25.8c0-9.7-1.6-17-4.8-21.8s-8.1-7.2-14.6-7.2c-11.5,0-20.7,3.7-27.6,11.1c-2.7,3.1-5.5,6.2-8.3,9.3
				c-3.5,3.3-7.3,5-11.2,5c-3.7,0-6.9-1.3-9.4-3.8c-2.6-2.5-3.9-5.5-3.9-9c0-1.5,0.6-7.2,1.7-17c2.1-19.1,3.2-31.8,3.2-38.1
				c0-1.6-0.6-3.7-1.7-6.4c-1.1-2.7-1.7-4.9-1.7-6.4c0-3.3,1.7-5.7,5-7.4c2.6-1.3,5.7-2,9.2-2c1.3,0,3.3,0.1,5.9,0.3
				c2.6,0.2,4.6,0.3,5.9,0.3l47,0.1c1.2,0,3.7-0.2,7.5-0.6s6.4-0.6,7.6-0.6c3.5,0,6.4,1.1,8.7,3.4c2.3,2.2,3.4,5.1,3.4,8.6
				c0,9.7-9.9,14.6-29.6,14.6c-1.6,0-3.5,0-5.9-0.1c-2.4-0.1-4-0.1-4.7-0.1h-29.1c-0.2,4-1,10.5-2.4,19.7c8.5-4.2,18.7-6.2,30.6-6.2
				c15.8,0,27.8,5.9,36,17.7c6.8,9.7,10.3,21.9,10.3,36.6c0,17.7-5.5,32.4-16.4,43.9C-162.4,310.6-177.5,316.6-196.3,316.6z"/>
		</g>
	</g>
	<g id="XMLID_8_">
		<g>
			<defs>
				<path id="SVGID_1_" d="M-196.3,316.6c-19.9,0-34.6-7.1-44-21.3c-1.6-2.5-2.4-4.8-2.4-7.1c0-3.5,1.4-6.5,4.2-9s6-3.7,9.6-3.7
					s6.8,1.4,9.4,4.1c4.6,4.8,7,7.3,7.4,7.6c3.8,2.7,9.1,4.1,15.9,4.1c10,0,18.4-3.7,25.1-11c6.4-7.1,9.7-15.7,9.7-25.8
					c0-9.7-1.6-17-4.8-21.8s-8.1-7.2-14.6-7.2c-11.5,0-20.7,3.7-27.6,11.1c-2.7,3.1-5.5,6.2-8.3,9.3c-3.5,3.3-7.3,5-11.2,5
					c-3.7,0-6.9-1.3-9.4-3.8c-2.6-2.5-3.9-5.5-3.9-9c0-1.5,0.6-7.2,1.7-17c2.1-19.1,3.2-31.8,3.2-38.1c0-1.6-0.6-3.7-1.7-6.4
					c-1.1-2.7-1.7-4.9-1.7-6.4c0-3.3,1.7-5.7,5-7.4c2.6-1.3,5.7-2,9.2-2c1.3,0,3.3,0.1,5.9,0.3c2.6,0.2,4.6,0.3,5.9,0.3l47,0.1
					c1.2,0,3.7-0.2,7.5-0.6s6.4-0.6,7.6-0.6c3.5,0,6.4,1.1,8.7,3.4c2.3,2.2,3.4,5.1,3.4,8.6c0,9.7-9.9,14.6-29.6,14.6
					c-1.6,0-3.5,0-5.9-0.1c-2.4-0.1-4-0.1-4.7-0.1h-29.1c-0.2,4-1,10.5-2.4,19.7c8.5-4.2,18.7-6.2,30.6-6.2c15.8,0,27.8,5.9,36,17.7
					c6.8,9.7,10.3,21.9,10.3,36.6c0,17.7-5.5,32.4-16.4,43.9C-162.4,310.6-177.5,316.6-196.3,316.6z"/>
			</defs>
			<clipPath id="SVGID_2_">
				<use xlink:href="#SVGID_1_"  style="overflow:visible;"/>
			</clipPath>
			<path id="XMLID_15_" class="st2" d="M-192.3,312.6c-19.9,0-34.6-7.1-44-21.3c-1.6-2.5-2.4-4.8-2.4-7.1c0-3.5,1.4-6.5,4.2-9
				s6-3.7,9.6-3.7s6.8,1.4,9.4,4.1c4.6,4.8,7,7.3,7.4,7.6c3.8,2.7,9.1,4.1,15.9,4.1c10,0,18.4-3.7,25.1-11
				c6.4-7.1,9.7-15.7,9.7-25.8c0-9.7-1.6-17-4.8-21.8s-8.1-7.2-14.6-7.2c-11.5,0-20.7,3.7-27.6,11.1c-2.7,3.1-5.5,6.2-8.3,9.3
				c-3.5,3.3-7.3,5-11.2,5c-3.7,0-6.9-1.3-9.4-3.8c-2.6-2.5-3.9-5.5-3.9-9c0-1.5,0.6-7.2,1.7-17c2.1-19.1,3.2-31.8,3.2-38.1
				c0-1.6-0.6-3.7-1.7-6.4c-1.1-2.7-1.7-4.9-1.7-6.4c0-3.3,1.7-5.7,5-7.4c2.6-1.3,5.7-2,9.2-2c1.3,0,3.3,0.1,5.9,0.3
				c2.6,0.2,4.6,0.3,5.9,0.3l47,0.1c1.2,0,3.7-0.2,7.5-0.6s6.4-0.6,7.6-0.6c3.5,0,6.4,1.1,8.7,3.4c2.3,2.2,3.4,5.1,3.4,8.6
				c0,9.7-9.9,14.6-29.6,14.6c-1.6,0-3.5,0-5.9-0.1c-2.4-0.1-4-0.1-4.7-0.1h-32.5c-0.2,4-1,10.5-2.4,19.7c8.5-4.2,22.1-6.2,34-6.2
				c15.8,0,27.8,5.9,36,17.7c6.8,9.7,10.3,21.9,10.3,36.6c0,17.7-5.5,32.4-16.4,43.9C-158.4,306.6-173.5,312.6-192.3,312.6z"/>
		</g>
	</g>
</g>
</svg>
