<?xml version="1.0" encoding="utf-8"?>
<!-- Generator: Adobe Illustrator 19.0.0, SVG Export Plug-In . SVG Version: 6.00 Build 0)  -->
<svg version="1.1" id="图层_1" xmlns="http://www.w3.org/2000/svg" xmlns:xlink="http://www.w3.org/1999/xlink" x="0px" y="0px"
	 viewBox="-255 158 128 166" style="enable-background:new -255 158 128 166;" xml:space="preserve">
<style type="text/css">
	.st0{fill:#8A011E;}
	.st1{fill:#EBF7C9;}
	.st2{clip-path:url(#SVGID_2_);fill:#FFFFFF;}
</style>
<g id="XMLID_265_">
	<g id="XMLID_504_">
		<g id="XMLID_1412_">
			<path id="XMLID_1416_" class="st0" d="M-194.9,323c-18.4,0-32-6.5-40.8-19.5c-7-10.4-10.5-24.1-10.5-41
				c0-31.7,13.5-59.2,40.4-82.4c3.4-3.3,6.8-6.5,10.2-9.7c4.8-4.2,8.7-6.3,11.8-6.3c3.6,0,6.7,1.2,9.5,3.7s4.2,5.4,4.3,8.8
				c0.1,3.3-3.6,8.5-11.1,15.7c-5.4,4.9-10.8,9.9-16.1,14.7c-6,5.9-10.3,11.6-13,17.2c3.5-1.4,6.8-2.4,9.8-3c3-0.7,5.8-1,8.3-1
				c16.3,0,28.9,4.2,37.8,12.7c8.9,8.5,13.4,20.3,13.4,35.5c0,15.8-4.7,28.7-14.2,38.8C-165.1,317.6-178.3,323-194.9,323z
				 M-194.9,246.4c-4.8,0-9.1,0.8-13,2.3c-2,0.8-5.7,2.9-11.1,6.2c-0.3,2.7-0.4,5.1-0.4,7.4c0,12.3,2.1,21.5,6.2,27.7
				c4.2,6.2,10.4,9.2,18.8,9.2c8.5,0,15.1-2.9,19.8-8.6c4.5-5.5,6.7-12.9,6.7-22.4c0-7.3-2.2-12.8-6.7-16.4
				C-179,248.4-185.8,246.4-194.9,246.4z"/>
		</g>
		<g id="XMLID_1405_">
			<path id="XMLID_1409_" class="st1" d="M-189.9,318c-18.4,0-32-6.5-40.8-19.5c-7-10.4-10.5-24.1-10.5-41
				c0-31.7,13.5-59.2,40.4-82.4c3.4-3.3,6.8-6.5,10.2-9.7c4.8-4.2,8.7-6.3,11.8-6.3c3.6,0,6.7,1.2,9.5,3.7s4.2,5.4,4.3,8.8
				c0.1,3.3-3.6,8.5-11.1,15.7c-5.4,4.9-10.8,9.9-16.1,14.7c-6,5.9-10.3,11.6-13,17.2c3.5-1.4,6.8-2.4,9.8-3c3-0.7,5.8-1,8.3-1
				c16.3,0,28.9,4.2,37.8,12.7c8.9,8.5,13.4,20.3,13.4,35.5c0,15.8-4.7,28.7-14.2,38.8C-160.1,312.6-173.3,318-189.9,318z
				 M-189.9,241.4c-4.8,0-9.1,0.8-13,2.3c-2,0.8-5.7,2.9-11.1,6.2c-0.3,2.7-0.4,5.1-0.4,7.4c0,12.3,2.1,21.5,6.2,27.7
				c4.2,6.2,10.4,9.2,18.8,9.2c8.5,0,15.1-2.9,19.8-8.6c4.5-5.5,6.7-12.9,6.7-22.4c0-7.3-2.2-12.8-6.7-16.4
				C-174,243.4-180.8,241.4-189.9,241.4z"/>
		</g>
	</g>
	<g id="XMLID_506_">
		<g>
			<defs>
				<path id="SVGID_1_" d="M-189.9,318c-18.4,0-32-6.5-40.8-19.5c-7-10.4-10.5-24.1-10.5-41c0-31.7,13.5-59.2,40.4-82.4
					c3.4-3.3,6.8-6.5,10.2-9.7c4.8-4.2,8.7-6.3,11.8-6.3c3.6,0,6.7,1.2,9.5,3.7s4.2,5.4,4.3,8.8c0.1,3.3-3.6,8.5-11.1,15.7
					c-5.4,4.9-10.8,9.9-16.1,14.7c-6,5.9-10.3,11.6-13,17.2c3.5-1.4,6.8-2.4,9.8-3c3-0.7,5.8-1,8.3-1c16.3,0,28.9,4.2,37.8,12.7
					c8.9,8.5,13.4,20.3,13.4,35.5c0,15.8-4.7,28.7-14.2,38.8C-160.1,312.6-173.3,318-189.9,318z"/>
			</defs>
			<clipPath id="SVGID_2_">
				<use xlink:href="#SVGID_1_"  style="overflow:visible;"/>
			</clipPath>
			<path id="XMLID_600_" class="st2" d="M-185.9,314c-18.4,0-32-6.5-40.8-19.5c-7-10.4-10.5-24.1-10.5-41
				c0-31.7,13.5-59.2,40.4-82.4c3.4-3.3,6.8-6.5,10.2-9.7c4.8-4.2,8.7-6.3,11.8-6.3c3.6,0,6.7,1.2,9.5,3.7s4.2,5.4,4.3,8.8
				c0.1,3.3-3.6,8.5-11.1,15.7c-5.4,4.9-10.8,9.9-16.1,14.7c-6,5.9-10.3,11.6-13,17.2c3.5-1.4,6.8-2.4,9.8-3c3-0.7,5.8-1,8.3-1
				c16.3,0,28.9,4.2,37.8,12.7c8.9,8.5,13.4,20.3,13.4,35.5c0,15.8-4.7,28.7-14.2,38.8C-156.1,308.6-169.3,314-185.9,314z
				 M-185.9,237.4c-4.8,0-9.1,0.8-13,2.3c-2,0.8-5.7,2.9-11.1,6.2c-0.3,2.7-0.4,5.1-0.4,7.4c0,12.3,2.1,21.5,6.2,27.7
				c4.2,6.2,10.4,9.2,18.8,9.2c8.5,0,15.1-2.9,19.8-8.6c4.5-5.5,6.7-12.9,6.7-22.4c0-7.3-2.2-12.8-6.7-16.4
				C-170,239.4-176.8,237.4-185.9,237.4z"/>
		</g>
	</g>
</g>
</svg>
