<?xml version="1.0" encoding="utf-8"?>
<!-- Generator: Adobe Illustrator 19.0.0, SVG Export Plug-In . SVG Version: 6.00 Build 0)  -->
<svg version="1.1" id="图层_1" xmlns="http://www.w3.org/2000/svg" xmlns:xlink="http://www.w3.org/1999/xlink" x="0px" y="0px"
	 viewBox="-255 158 128 166" style="enable-background:new -255 158 128 166;" xml:space="preserve">
<style type="text/css">
	.st0{fill:#8A011E;}
	.st1{fill:#EBF7C9;}
	.st2{clip-path:url(#SVGID_2_);fill:#FFFFFF;}
</style>
<g id="XMLID_287_">
	<g id="XMLID_634_">
		<g id="XMLID_399_">
			<path id="XMLID_401_" class="st0" d="M-177.5,193.4c-7.3-0.1-20.9-0.4-40.7-0.9c-4.9,0-12.3-0.2-22.2-0.7
				c-8.7-0.7-13-4.9-13-12.6c0-3.6,1.3-6.6,3.9-9c2.6-2.4,5.8-3.6,9.6-3.6c8.2,0,20.5,0.2,37,0.7c16.4,0.5,28.8,0.7,37,0.7h17.9
				c3.5,0,6.6,0.7,9.3,2.1c3.3,1.7,5,4.2,5,7.5c0,3.6-2,7.8-5.9,12.8c-3.3,3.6-6.5,7.3-9.9,10.9c-8.3,9.2-15.9,20.4-22.9,33.8
				c-2.2,4.2-8,16.4-17.5,36.6c-1.2,2.7-4,10-8.3,21.9c-3.3,9-6.6,16-10,21.1c-2.6,3.7-6.2,5.6-10.8,5.6c-3.6,0-6.8-1.2-9.6-3.6
				c-2.8-2.4-4.2-5.4-4.2-9c0-2.8,2.2-9.3,6.5-19.5c7-16.4,14-32.8,21-49.2C-196.2,219.9-187.1,204.8-177.5,193.4z"/>
		</g>
		<g id="XMLID_396_">
			<path id="XMLID_398_" class="st1" d="M-172.5,188.4c-7.3-0.1-20.9-0.4-40.7-0.9c-4.9,0-12.3-0.2-22.2-0.7
				c-8.7-0.7-13-4.9-13-12.6c0-3.6,1.3-6.6,3.9-9c2.6-2.4,5.8-3.6,9.6-3.6c8.2,0,20.5,0.2,37,0.7c16.4,0.5,28.8,0.7,37,0.7h17.9
				c3.5,0,6.6,0.7,9.3,2.1c3.3,1.7,5,4.2,5,7.5c0,3.6-2,7.8-5.9,12.8c-3.3,3.6-6.5,7.3-9.9,10.9c-8.3,9.2-15.9,20.4-22.9,33.8
				c-2.2,4.2-8,16.4-17.5,36.6c-1.2,2.7-4,10-8.3,21.9c-3.3,9-6.6,16-10,21.1c-2.6,3.7-6.2,5.6-10.8,5.6c-3.6,0-6.8-1.2-9.6-3.6
				c-2.8-2.4-4.2-5.4-4.2-9c0-2.8,2.2-9.3,6.5-19.5c7-16.4,14-32.8,21-49.2C-191.2,214.9-182.1,199.8-172.5,188.4z"/>
		</g>
	</g>
	<g id="XMLID_695_">
		<g>
			<defs>
				<path id="SVGID_1_" d="M-172.5,188.4c-7.3-0.1-20.9-0.4-40.7-0.9c-4.9,0-12.3-0.2-22.2-0.7c-8.7-0.7-13-4.9-13-12.6
					c0-3.6,1.3-6.6,3.9-9c2.6-2.4,5.8-3.6,9.6-3.6c8.2,0,20.5,0.2,37,0.7c16.4,0.5,28.8,0.7,37,0.7h17.9c3.5,0,6.6,0.7,9.3,2.1
					c3.3,1.7,5,4.2,5,7.5c0,3.6-2,7.8-5.9,12.8c-3.3,3.6-6.5,7.3-9.9,10.9c-8.3,9.2-15.9,20.4-22.9,33.8c-2.2,4.2-8,16.4-17.5,36.6
					c-1.2,2.7-4,10-8.3,21.9c-3.3,9-6.6,16-10,21.1c-2.6,3.7-6.2,5.6-10.8,5.6c-3.6,0-6.8-1.2-9.6-3.6c-2.8-2.4-4.2-5.4-4.2-9
					c0-2.8,2.2-9.3,6.5-19.5c7-16.4,14-32.8,21-49.2C-191.2,214.9-182.1,199.8-172.5,188.4z"/>
			</defs>
			<clipPath id="SVGID_2_">
				<use xlink:href="#SVGID_1_"  style="overflow:visible;"/>
			</clipPath>
			<path id="XMLID_694_" class="st2" d="M-168.5,184.4c-7.3-0.1-20.9-0.4-40.7-0.9c-4.9,0-12.3-0.2-22.2-0.7
				c-8.7-0.7-13-4.9-13-12.6c0-3.6,1.3-6.6,3.9-9c2.6-2.4,5.8-3.6,9.6-3.6c8.2,0,20.5,0.2,37,0.7c16.4,0.5,28.8,0.7,37,0.7h17.9
				c3.5,0,6.6,0.7,9.3,2.1c3.3,1.7,5,4.2,5,7.5c0,3.6-2,7.8-5.9,12.8c-3.3,3.6-6.5,7.3-9.9,10.9c-8.3,9.2-15.9,20.4-22.9,33.8
				c-2.2,4.2-8,16.4-17.5,36.6c-1.2,2.7-4,10-8.3,21.9c-3.3,9-6.6,16-10,21.1c-2.6,3.7-6.2,5.6-10.8,5.6c-3.6,0-6.8-1.2-9.6-3.6
				c-2.8-2.4-4.2-5.4-4.2-9c0-2.8,2.2-9.3,6.5-19.5c7-16.4,14-32.8,21-49.2C-187.2,210.9-178.1,195.8-168.5,184.4z"/>
		</g>
	</g>
</g>
</svg>
