<?xml version="1.0" encoding="utf-8"?>
<!-- Generator: Adobe Illustrator 19.0.0, SVG Export Plug-In . SVG Version: 6.00 Build 0)  -->
<svg version="1.1" id="图层_1" xmlns="http://www.w3.org/2000/svg" xmlns:xlink="http://www.w3.org/1999/xlink" x="0px" y="0px"
	 viewBox="-255 158 128 166" style="enable-background:new -255 158 128 166;" xml:space="preserve">
<style type="text/css">
	.st0{fill:#8A011E;}
	.st1{fill:#EBF7C9;}
	.st2{clip-path:url(#SVGID_2_);fill:#FFFFFF;}
</style>
<g id="XMLID_305_">
	<g id="XMLID_727_">
		<g id="XMLID_863_">
			<path id="XMLID_868_" class="st0" d="M-194.5,320.6c-14.5,0-26.3-3.1-35.5-9.2c-10.7-7.2-16.2-17.6-16.4-31.3
				c-0.3-19.2,6-33,18.9-41.3c-9.4-7.5-14.2-16.9-14.2-28.2c0-12.8,4.9-23.5,14.6-31.9c9.3-8.1,20.5-12.2,33.7-12.3
				c15.6-0.1,27.2,4,35,12.4c6.6,7.3,10,17.3,10,29.9c0,7.1-1.3,12.8-3.8,17.1c-2.3,3.8-6.1,7.3-11.4,10.4
				c7.9,4.4,13.6,9.6,17.1,15.4c4,6.5,6,15.1,6,25.7c0,13.9-5.4,24.8-16.3,32.7C-166.7,317.1-179.2,320.6-194.5,320.6z
				 M-195.1,249.5c-9.4,4.1-15.6,7.7-18.6,10.8c-4.4,4.4-6.4,10.6-6.2,18.7c0.2,6.3,3.3,11.1,9.2,14.3c4.6,2.5,10,3.7,16.1,3.7
				c10.2,0,17.3-2.1,21.1-6.4c3-3.4,4.5-8.8,4.5-16.2c0-6.7-2.6-12.1-7.9-16.3C-180.8,254.9-186.9,252-195.1,249.5z M-193.6,190.3
				c-14.3,0-21.3,6.7-21.2,20.1c0.1,6.7,6.2,11.6,18.5,14.7c6.8-1.9,11.6-3.6,14.2-5.2c4.6-2.8,6.9-6.6,6.9-11.4
				c0-7.3-1.6-12.3-4.7-14.9C-182.5,191.4-187.1,190.3-193.6,190.3z"/>
		</g>
		<g id="XMLID_854_">
			<path id="XMLID_859_" class="st1" d="M-189.5,315.6c-14.5,0-26.3-3.1-35.5-9.2c-10.7-7.2-16.2-17.6-16.4-31.3
				c-0.3-19.2,6-33,18.9-41.3c-9.4-7.5-14.2-16.9-14.2-28.2c0-12.8,4.9-23.5,14.6-31.9c9.3-8.1,20.5-12.2,33.7-12.3
				c15.6-0.1,27.2,4,35,12.4c6.6,7.3,10,17.3,10,29.9c0,7.1-1.3,12.8-3.8,17.1c-2.3,3.8-6.1,7.3-11.4,10.4
				c7.9,4.4,13.6,9.6,17.1,15.4c4,6.5,6,15.1,6,25.7c0,13.9-5.4,24.8-16.3,32.7C-161.7,312.1-174.2,315.6-189.5,315.6z
				 M-190.1,244.5c-9.4,4.1-15.6,7.7-18.6,10.8c-4.4,4.4-6.4,10.6-6.2,18.7c0.2,6.3,3.3,11.1,9.2,14.3c4.6,2.5,10,3.7,16.1,3.7
				c10.2,0,17.3-2.1,21.1-6.4c3-3.4,4.5-8.8,4.5-16.2c0-6.7-2.6-12.1-7.9-16.3C-175.8,249.9-181.9,247-190.1,244.5z M-188.6,185.3
				c-14.3,0-21.3,6.7-21.2,20.1c0.1,6.7,6.2,11.6,18.5,14.7c6.8-1.9,11.6-3.6,14.2-5.2c4.6-2.8,6.9-6.6,6.9-11.4
				c0-7.3-1.6-12.3-4.7-14.9C-177.5,186.4-182.1,185.3-188.6,185.3z"/>
		</g>
	</g>
	<g id="XMLID_729_">
		<g>
			<defs>
				<path id="SVGID_1_" d="M-189.5,315.6c-14.5,0-26.3-3.1-35.5-9.2c-10.7-7.2-16.2-17.6-16.4-31.3c-0.3-19.2,6-33,18.9-41.3
					c-9.4-7.5-14.2-16.9-14.2-28.2c0-12.8,4.9-23.5,14.6-31.9c9.3-8.1,20.5-12.2,33.7-12.3c15.6-0.1,27.2,4,35,12.4
					c6.6,7.3,10,17.3,10,29.9c0,7.1-1.3,12.8-3.8,17.1c-2.3,3.8-6.1,7.3-11.4,10.4c7.9,4.4,13.6,9.6,17.1,15.4c4,6.5,6,15.1,6,25.7
					c0,13.9-5.4,24.8-16.3,32.7C-161.7,312.1-174.2,315.6-189.5,315.6z"/>
			</defs>
			<clipPath id="SVGID_2_">
				<use xlink:href="#SVGID_1_"  style="overflow:visible;"/>
			</clipPath>
			<path id="XMLID_730_" class="st2" d="M-185.5,311.6c-14.5,0-26.3-3.1-35.5-9.2c-10.7-7.2-16.2-17.6-16.4-31.3
				c-0.3-19.2,6-33,18.9-41.3c-9.4-7.5-14.2-16.9-14.2-28.2c0-12.8,4.9-23.5,14.6-31.9c9.3-8.1,20.5-12.2,33.7-12.3
				c15.6-0.1,27.2,4,35,12.4c6.6,7.3,10,17.3,10,29.9c0,7.1-1.3,12.8-3.8,17.1c-2.3,3.8-6.1,7.3-11.4,10.4
				c7.9,4.4,13.6,9.6,17.1,15.4c4,6.5,6,15.1,6,25.7c0,13.9-5.4,24.8-16.3,32.7C-157.7,308.1-170.2,311.6-185.5,311.6z
				 M-186.1,240.5c-9.4,4.1-15.6,7.7-18.6,10.8c-4.4,4.4-6.4,10.6-6.2,18.7c0.2,6.3,3.3,11.1,9.2,14.3c4.6,2.5,10,3.7,16.1,3.7
				c10.2,0,17.3-2.1,21.1-6.4c3-3.4,4.5-8.8,4.5-16.2c0-6.7-2.6-12.1-7.9-16.3C-171.8,245.9-177.9,243-186.1,240.5z M-184.6,181.3
				c-14.3,0-21.3,6.7-21.2,20.1c0.1,6.7,6.2,11.6,18.5,14.7c6.8-1.9,11.6-3.6,14.2-5.2c4.6-2.8,6.9-6.6,6.9-11.4
				c0-7.3-1.6-12.3-4.7-14.9C-173.5,182.4-178.1,181.3-184.6,181.3z"/>
		</g>
	</g>
</g>
</svg>
