<?xml version="1.0" encoding="utf-8"?>
<!-- Generator: Adobe Illustrator 19.0.0, SVG Export Plug-In . SVG Version: 6.00 Build 0)  -->
<svg version="1.1" id="图层_1" xmlns="http://www.w3.org/2000/svg" xmlns:xlink="http://www.w3.org/1999/xlink" x="0px" y="0px"
	 viewBox="-255 158 128 166" style="enable-background:new -255 158 128 166;" xml:space="preserve">
<style type="text/css">
	.st0{fill:#8A011E;}
	.st1{fill:#EBF7C9;}
	.st2{clip-path:url(#SVGID_2_);fill:#FFFFFF;}
</style>
<g id="XMLID_319_">
	<g id="XMLID_819_">
		<g id="XMLID_180_">
			<path id="XMLID_184_" class="st0" d="M-176.4,260.9c-4,1.4-7.6,2.4-10.9,3.1c-3.3,0.7-6.2,1-8.8,1c-13.1,0-24.5-3.5-34.3-10.5
				c-12-8.6-18-20.9-18-36.8c0-18.5,6.1-32.5,18.4-41.9c10.3-7.9,23.7-11.9,40.1-11.9c13.1,0,24.7,5,35,15.1
				c10.7,10.5,16.1,23.3,16.2,38.3c0.1,16.3-3.1,32.1-9.5,47.4c-6.9,16.6-16.3,29.1-28.3,37.6c-5,3.5-12.9,7.7-23.5,12.6
				c-12.2,5.5-20.9,8.3-26,8.3c-3.8,0-7-1.4-9.6-4.1c-2.3-2.5-3.5-5.5-3.5-8.9c0-5.2,3.1-9.2,9.4-11.9c5.3-1.7,10.7-3.4,16-5.2
				c9.5-3.6,17-7.8,22.4-12.5C-185.8,276-180.9,269.4-176.4,260.9z M-192.7,187.2c-9.6,0-16.9,2.4-21.7,7.2
				c-4.8,4.8-7.3,12-7.3,21.6c0,7.8,2.8,13.9,8.5,18.3c5.1,3.9,11.8,5.9,19.9,5.9c3.3,0,7.1-1,11.6-3s9.5-5,15.2-9.1
				c0.7-4.6,1-8.1,1-10.7c-0.1-6.8-3.2-13.6-9.3-20.3C-180.9,190.4-186.8,187.2-192.7,187.2z"/>
		</g>
		<g id="XMLID_173_">
			<path id="XMLID_177_" class="st1" d="M-171.4,255.9c-4,1.4-7.6,2.4-10.9,3.1c-3.3,0.7-6.2,1-8.8,1c-13.1,0-24.5-3.5-34.3-10.5
				c-12-8.6-18-20.9-18-36.8c0-18.5,6.1-32.5,18.4-41.9c10.3-7.9,23.7-11.9,40.1-11.9c13.1,0,24.7,5,35,15.1
				c10.7,10.5,16.1,23.3,16.2,38.3c0.1,16.3-3.1,32.1-9.5,47.4c-6.9,16.6-16.3,29.1-28.3,37.6c-5,3.5-12.9,7.7-23.5,12.6
				c-12.2,5.5-20.9,8.3-26,8.3c-3.8,0-7-1.4-9.6-4.1c-2.3-2.5-3.5-5.5-3.5-8.9c0-5.2,3.1-9.2,9.4-11.9c5.3-1.7,10.7-3.4,16-5.2
				c9.5-3.6,17-7.8,22.4-12.5C-180.8,271-175.9,264.4-171.4,255.9z M-187.7,182.2c-9.6,0-16.9,2.4-21.7,7.2
				c-4.8,4.8-7.3,12-7.3,21.6c0,7.8,2.8,13.9,8.5,18.3c5.1,3.9,11.8,5.9,19.9,5.9c3.3,0,7.1-1,11.6-3s9.5-5,15.2-9.1
				c0.7-4.6,1-8.1,1-10.7c-0.1-6.8-3.2-13.6-9.3-20.3C-175.9,185.4-181.8,182.2-187.7,182.2z"/>
		</g>
	</g>
	<g id="XMLID_123_">
		<g>
			<defs>
				<path id="SVGID_1_" d="M-171.4,255.9c-4,1.4-7.6,2.4-10.9,3.1c-3.3,0.7-6.2,1-8.8,1c-13.1,0-24.5-3.5-34.3-10.5
					c-12-8.6-18-20.9-18-36.8c0-18.5,6.1-32.5,18.4-41.9c10.3-7.9,23.7-11.9,40.1-11.9c13.1,0,24.7,5,35,15.1
					c10.7,10.5,16.1,23.3,16.2,38.3c0.1,16.3-3.1,32.1-9.5,47.4c-6.9,16.6-16.3,29.1-28.3,37.6c-5,3.5-12.9,7.7-23.5,12.6
					c-12.2,5.5-20.9,8.3-26,8.3c-3.8,0-7-1.4-9.6-4.1c-2.3-2.5-3.5-5.5-3.5-8.9c0-5.2,3.1-9.2,9.4-11.9c5.3-1.7,10.7-3.4,16-5.2
					c9.5-3.6,17-7.8,22.4-12.5C-180.8,271-175.9,264.4-171.4,255.9z"/>
			</defs>
			<clipPath id="SVGID_2_">
				<use xlink:href="#SVGID_1_"  style="overflow:visible;"/>
			</clipPath>
			<path id="XMLID_85_" class="st2" d="M-167.4,251.9c-4,1.4-7.6,2.4-10.9,3.1s-6.2,1-8.8,1c-13.1,0-24.5-3.5-34.3-10.5
				c-12-8.6-18-20.9-18-36.8c0-18.5,6.1-32.5,18.4-41.9c10.3-7.9,23.7-11.9,40.1-11.9c13.1,0,24.7,5,35,15.1
				c10.7,10.5,16.1,23.3,16.2,38.3c0.1,16.3-3.1,32.1-9.5,47.4c-6.9,16.6-16.3,29.1-28.3,37.6c-5,3.5-12.9,7.7-23.5,12.6
				c-12.2,5.5-20.9,8.3-26,8.3c-3.8,0-7-1.4-9.6-4.1c-2.3-2.5-3.5-5.5-3.5-8.9c0-5.2,3.1-9.2,9.4-11.9c5.3-1.7,10.7-3.4,16-5.2
				c9.5-3.6,17-7.8,22.4-12.5C-176.8,267-171.9,260.4-167.4,251.9z M-183.7,178.2c-9.6,0-16.9,2.4-21.7,7.2
				c-4.8,4.8-7.3,12-7.3,21.6c0,7.8,2.8,13.9,8.5,18.3c5.1,3.9,11.8,5.9,19.9,5.9c3.3,0,7.1-1,11.6-3s9.5-5,15.2-9.1
				c0.7-4.6,1-8.1,1-10.7c-0.1-6.8-3.2-13.6-9.3-20.3C-171.9,181.4-177.8,178.2-183.7,178.2z"/>
		</g>
	</g>
</g>
</svg>
