<?xml version="1.0" encoding="utf-8"?>
<!-- Generator: Adobe Illustrator 19.0.0, SVG Export Plug-In . SVG Version: 6.00 Build 0)  -->
<svg version="1.1" id="图层_1" xmlns="http://www.w3.org/2000/svg" xmlns:xlink="http://www.w3.org/1999/xlink" x="0px" y="0px"
	 viewBox="0 0 128 166" style="enable-background:new 0 0 128 166;" xml:space="preserve">
<style type="text/css">
	.st0{fill:#8A011E;}
	.st1{fill:#EBF7C9;}
	.st2{clip-path:url(#XMLID_11_);fill:#FFFFFF;}
</style>
<g id="XMLID_1380_">
	<g id="XMLID_195_">
		<g id="XMLID_585_">
			<path id="XMLID_897_" class="st0" d="M46.4,160.5c-4.4,0-8.1-1.4-11.3-4.1c-3.2-2.7-4.8-5.7-4.8-9.1c0-3.5,1.6-6.6,4.8-9.3
				c3.2-2.8,7-4.2,11.3-4.2c4.6,0,8.4,1.3,11.4,3.9c3,2.6,4.5,5.8,4.5,9.6c0,3.5-1.6,6.5-4.7,9.2C54.5,159.2,50.7,160.5,46.4,160.5z
				"/>
		</g>
		<g id="XMLID_582_">
			<path id="XMLID_584_" class="st1" d="M51.4,155.5c-4.4,0-8.1-1.4-11.3-4.1c-3.2-2.7-4.8-5.7-4.8-9.1c0-3.5,1.6-6.6,4.8-9.3
				c3.2-2.8,7-4.2,11.3-4.2c4.6,0,8.4,1.3,11.4,3.9c3,2.6,4.5,5.8,4.5,9.6c0,3.5-1.6,6.5-4.7,9.2C59.5,154.2,55.7,155.5,51.4,155.5z
				"/>
		</g>
	</g>
	<g id="XMLID_236_">
		<defs>
			<path id="XMLID_192_" d="M51.4,155.5c-4.4,0-8.1-1.4-11.3-4.1c-3.2-2.7-4.8-5.7-4.8-9.1c0-3.5,1.6-6.6,4.8-9.3
				c3.2-2.8,7-4.2,11.3-4.2c4.6,0,8.4,1.3,11.4,3.9c3,2.6,4.5,5.8,4.5,9.6c0,3.5-1.6,6.5-4.7,9.2C59.5,154.2,55.7,155.5,51.4,155.5z
				"/>
		</defs>
		<clipPath id="XMLID_11_">
			<use xlink:href="#XMLID_192_"  style="overflow:visible;"/>
		</clipPath>
		<path id="XMLID_193_" class="st2" d="M55.4,151.5c-4.4,0-8.1-1.4-11.3-4.1c-3.2-2.7-4.8-5.7-4.8-9.1c0-3.5,1.6-6.6,4.8-9.3
			c3.2-2.8,7-4.2,11.3-4.2c4.6,0,8.4,1.3,11.4,3.9c3,2.6,4.5,5.8,4.5,9.6c0,3.5-1.6,6.5-4.7,9.2C63.5,150.2,59.7,151.5,55.4,151.5z"
			/>
	</g>
</g>
</svg>
